<svg width="346" height="58" viewBox="0 0 346 58" fill="none" xmlns="http://www.w3.org/2000/svg">
<rect x="161" width="185" height="58" rx="15" fill="#CCA4DE"/>
<path d="M236.5 13V12.5H236L221.347 12.5C217.966 12.5 215.229 12.9701 213.172 13.9466L213.172 13.9466C211.091 14.9349 209.302 16.758 207.789 19.3552L208.216 19.6044L207.789 19.3552C206.258 21.9812 205.5 24.9949 205.5 28.3814C205.5 33.1746 206.946 37.3932 209.839 41.0159C212.736 44.6438 216.225 46.5 220.29 46.5C223.715 46.5 226.772 45.1937 229.444 42.6196C232.136 40.0259 233.479 36.7469 233.479 32.821C233.479 29.8087 232.634 26.9614 230.955 24.2876L230.532 24.5535L230.955 24.2876C229.566 22.0756 227.841 20.1804 225.783 18.6038L236 18.6038H236.5V18.1038V13ZM221.136 18.6038H221.963C225.48 22.764 227.222 27.2891 227.222 32.1917C227.222 35.3387 226.572 37.9915 225.297 40.1718C224.027 42.3425 222.487 43.3326 220.683 43.3326C218.382 43.3326 216.302 41.9769 214.46 39.0399L214.036 39.3056L214.46 39.0399C212.622 36.1098 211.696 32.7256 211.696 28.8708C211.696 25.2359 212.581 22.673 214.247 21.0683C215.938 19.4398 218.216 18.6038 221.136 18.6038Z" fill="black" stroke="black"/>
<path d="M187.432 46.576C184.104 46.576 181.16 45.84 178.6 44.368C176.072 42.864 174.072 40.816 172.6 38.224C171.16 35.6 170.44 32.592 170.44 29.2C170.44 25.808 171.16 22.816 172.6 20.224C174.072 17.6 176.072 15.552 178.6 14.08C181.16 12.576 184.104 11.824 187.432 11.824C189.864 11.824 192.088 12.256 194.104 13.12C196.152 13.952 197.912 15.136 199.384 16.672C200.888 18.208 202.04 19.984 202.84 22L195.592 24.448C195.112 23.328 194.456 22.352 193.624 21.52C192.824 20.688 191.896 20.048 190.84 19.6C189.816 19.152 188.68 18.928 187.432 18.928C185.672 18.928 184.104 19.36 182.728 20.224C181.352 21.088 180.28 22.304 179.512 23.872C178.744 25.408 178.36 27.184 178.36 29.2C178.36 31.216 178.744 33.008 179.512 34.576C180.312 36.112 181.4 37.328 182.776 38.224C184.184 39.088 185.784 39.52 187.576 39.52C188.888 39.52 190.056 39.28 191.08 38.8C192.104 38.32 192.984 37.648 193.72 36.784C194.488 35.92 195.144 34.928 195.688 33.808L202.936 36.256C202.168 38.304 201.032 40.112 199.528 41.68C198.024 43.216 196.248 44.416 194.2 45.28C192.152 46.144 189.896 46.576 187.432 46.576ZM247.609 34.72V27.616H253.849C254.745 27.616 255.545 27.44 256.249 27.088C256.953 26.736 257.497 26.256 257.881 25.648C258.297 25.008 258.505 24.304 258.505 23.536C258.505 22.352 258.057 21.376 257.161 20.608C256.297 19.84 255.145 19.456 253.705 19.456H247.609V12.4L254.089 12.352C256.521 12.32 258.681 12.784 260.569 13.744C262.457 14.704 263.929 16.032 264.985 17.728C266.073 19.424 266.617 21.36 266.617 23.536C266.617 25.712 266.073 27.648 264.985 29.344C263.897 31.04 262.393 32.368 260.473 33.328C258.585 34.256 256.409 34.72 253.945 34.72H247.609ZM240.889 46V12.4H248.617V46H240.889ZM259.129 46L251.545 32.656L257.353 28.384L267.961 46H259.129ZM295.143 46L274.071 16.624L280.407 12.4L301.335 41.632L295.143 46ZM272.295 46V12.4H280.407L280.023 19.408V46.048L272.295 46ZM295.143 46V12.4H302.871V46H295.143ZM320.94 46.576C319.308 46.576 317.74 46.368 316.236 45.952C314.764 45.504 313.42 44.912 312.204 44.176C311.02 43.408 310.044 42.56 309.276 41.632C308.508 40.672 308.028 39.648 307.836 38.56L315.468 36.4C315.82 37.328 316.428 38.144 317.292 38.848C318.188 39.52 319.308 39.872 320.652 39.904C321.964 39.936 323.052 39.632 323.916 38.992C324.812 38.352 325.26 37.52 325.26 36.496C325.26 35.696 324.94 34.992 324.3 34.384C323.692 33.776 322.812 33.312 321.66 32.992L316.908 31.792C315.244 31.376 313.788 30.72 312.54 29.824C311.324 28.928 310.364 27.84 309.66 26.56C308.988 25.248 308.652 23.76 308.652 22.096C308.652 18.864 309.724 16.352 311.868 14.56C314.012 12.736 317.036 11.824 320.94 11.824C323.084 11.824 324.956 12.128 326.556 12.736C328.156 13.312 329.516 14.176 330.636 15.328C331.788 16.48 332.7 17.92 333.372 19.648L325.788 21.904C325.532 21.04 324.972 20.256 324.108 19.552C323.276 18.848 322.188 18.496 320.844 18.496C319.5 18.496 318.444 18.8 317.676 19.408C316.94 20.016 316.572 20.896 316.572 22.048C316.572 22.848 316.876 23.52 317.484 24.064C318.092 24.576 318.924 24.96 319.98 25.216L324.732 26.416C327.452 27.088 329.564 28.352 331.068 30.208C332.604 32.032 333.372 34.112 333.372 36.448C333.372 38.56 332.876 40.368 331.884 41.872C330.924 43.376 329.516 44.544 327.66 45.376C325.804 46.176 323.564 46.576 320.94 46.576Z" fill="black"/>
<path d="M14.784 46.576C13.152 46.576 11.584 46.368 10.08 45.952C8.608 45.504 7.264 44.912 6.048 44.176C4.864 43.408 3.888 42.56 3.12 41.632C2.352 40.672 1.872 39.648 1.68 38.56L9.312 36.4C9.664 37.328 10.272 38.144 11.136 38.848C12.032 39.52 13.152 39.872 14.496 39.904C15.808 39.936 16.896 39.632 17.76 38.992C18.656 38.352 19.104 37.52 19.104 36.496C19.104 35.696 18.784 34.992 18.144 34.384C17.536 33.776 16.656 33.312 15.504 32.992L10.752 31.792C9.088 31.376 7.632 30.72 6.384 29.824C5.168 28.928 4.208 27.84 3.504 26.56C2.832 25.248 2.496 23.76 2.496 22.096C2.496 18.864 3.568 16.352 5.712 14.56C7.856 12.736 10.88 11.824 14.784 11.824C16.928 11.824 18.8 12.128 20.4 12.736C22 13.312 23.36 14.176 24.48 15.328C25.632 16.48 26.544 17.92 27.216 19.648L19.632 21.904C19.376 21.04 18.816 20.256 17.952 19.552C17.12 18.848 16.032 18.496 14.688 18.496C13.344 18.496 12.288 18.8 11.52 19.408C10.784 20.016 10.416 20.896 10.416 22.048C10.416 22.848 10.72 23.52 11.328 24.064C11.936 24.576 12.768 24.96 13.824 25.216L18.576 26.416C21.296 27.088 23.408 28.352 24.912 30.208C26.448 32.032 27.216 34.112 27.216 36.448C27.216 38.56 26.72 40.368 25.728 41.872C24.768 43.376 23.36 44.544 21.504 45.376C19.648 46.176 17.408 46.576 14.784 46.576ZM32.1859 46V12.4H39.9139V46H32.1859ZM62.2279 46.576C58.7719 46.576 55.7159 45.84 53.0599 44.368C50.4359 42.864 48.3719 40.816 46.8679 38.224C45.3639 35.6 44.6119 32.592 44.6119 29.2C44.6119 25.808 45.3639 22.816 46.8679 20.224C48.3719 17.6 50.4359 15.552 53.0599 14.08C55.7159 12.576 58.7719 11.824 62.2279 11.824C64.3719 11.824 66.3079 12.144 68.0359 12.784C69.7959 13.392 71.3319 14.24 72.6439 15.328C73.9559 16.416 75.0439 17.664 75.9079 19.072L69.5239 22.912C69.0439 22.144 68.4039 21.456 67.6039 20.848C66.8359 20.24 65.9879 19.776 65.0599 19.456C64.1319 19.104 63.1879 18.928 62.2279 18.928C60.3399 18.928 58.6599 19.36 57.1879 20.224C55.7479 21.088 54.6119 22.304 53.7799 23.872C52.9479 25.408 52.5319 27.184 52.5319 29.2C52.5319 31.216 52.9319 33.008 53.7319 34.576C54.5319 36.112 55.6839 37.328 57.1879 38.224C58.6919 39.12 60.4359 39.568 62.4199 39.568C63.9239 39.568 65.2519 39.28 66.4039 38.704C67.5559 38.128 68.4679 37.328 69.1399 36.304C69.8119 35.28 70.1479 34.08 70.1479 32.704L77.4919 31.456C77.4919 34.72 76.8359 37.488 75.5239 39.76C74.2119 42 72.4199 43.696 70.1479 44.848C67.8759 46 65.2359 46.576 62.2279 46.576ZM62.4679 33.52V27.568H77.4919V32.128L73.1719 33.52H62.4679ZM99.2048 38.608L81.8768 13.504L85.6208 12.592L90.2288 12.4L103.093 31.504L99.2048 38.608ZM81.7328 46V12.4H89.4608V46H81.7328ZM99.2048 38.608L95.2208 31.504L108.133 12.4L112.837 12.592L116.437 13.408L99.2048 38.608ZM108.901 46V12.4H116.629V46H108.901ZM146.498 46L133.922 12.4H141.602L154.658 46H146.498ZM120.29 46L133.346 12.4H141.026L128.45 46H120.29ZM126.434 39.616V32.8H148.562V39.616H126.434Z" fill="white"/>
</svg>
